<mxfile host="app.diagrams.net" modified="2024-02-08T10:25:32.091Z" agent="Mozilla/5.0 (Windows NT 10.0; Win64; x64) AppleWebKit/537.36 (KHTML, like Gecko) Chrome/120.0.0.0 Safari/537.36" etag="aX_3OhJW8ZtvAOErNC9U" version="23.1.2" type="github">
  <diagram name="Page-1" id="agW8wjErQOaKU3tMcuwa">
    <mxGraphModel dx="794" dy="492" grid="1" gridSize="10" guides="1" tooltips="1" connect="1" arrows="1" fold="1" page="1" pageScale="1" pageWidth="827" pageHeight="1169" math="0" shadow="0">
      <root>
        <mxCell id="0" />
        <mxCell id="1" parent="0" />
        <mxCell id="E5SZIKUxcwCQIkeyADVF-1" value="" style="ellipse;whiteSpace=wrap;html=1;aspect=fixed;" vertex="1" parent="1">
          <mxGeometry x="330" y="160" width="190" height="190" as="geometry" />
        </mxCell>
        <mxCell id="E5SZIKUxcwCQIkeyADVF-2" value="University&lt;br&gt;management&lt;br&gt;system" style="text;strokeColor=none;align=center;fillColor=none;html=1;verticalAlign=middle;whiteSpace=wrap;rounded=0;" vertex="1" parent="1">
          <mxGeometry x="390" y="240" width="80" height="30" as="geometry" />
        </mxCell>
        <mxCell id="E5SZIKUxcwCQIkeyADVF-3" value="" style="rounded=0;whiteSpace=wrap;html=1;" vertex="1" parent="1">
          <mxGeometry x="140" y="50" width="160" height="60" as="geometry" />
        </mxCell>
      </root>
    </mxGraphModel>
  </diagram>
</mxfile>
